<svg width="70" height="70" viewBox="0 0 70 70" fill="none" xmlns="http://www.w3.org/2000/svg">
<path d="M70 35C70 54.33 54.33 70 35 70C15.67 70 0 54.33 0 35C0 15.67 15.67 0 35 0C54.33 0 70 15.67 70 35Z" fill="#005994"/>
<path fill-rule="evenodd" clip-rule="evenodd" d="M19.0784 47.2473C18.8992 46.4192 18.18 46.2004 17.3771 46.1299C14.7811 45.9012 14.3198 47.7366 14.3198 48.5108C14.3198 49.8357 14.7293 50.9294 17.2815 50.9294C17.7495 50.9294 19.0466 50.4742 19.0466 49.7302H22.7125C22.5662 51.9349 18.6437 52.4619 16.9357 52.4619C13.392 52.4619 10.3589 51.8396 10.5052 48.5409C10.6088 46.1878 12.9639 44.5335 17.6469 44.6351C20.2576 44.6944 22.7629 45.4636 22.7762 47.2473H19.0784Z" fill="white"/>
<path fill-rule="evenodd" clip-rule="evenodd" d="M55.8047 47.2473C55.6213 46.4192 54.9034 46.2004 54.1009 46.1299C51.506 45.9012 51.0461 47.7366 51.0461 48.5108C51.0461 49.8357 51.4528 50.9294 54.0025 50.9294C54.4729 50.9294 55.7714 50.4742 55.7714 49.7302H59.4387C59.29 51.9349 55.3686 52.4619 53.6595 52.4619C50.1158 52.4619 47.0813 51.8396 47.2272 48.5409C47.3322 46.1878 49.6877 44.5335 54.3718 44.6351C56.9796 44.6944 59.4895 45.4636 59.5 47.2473H55.8047Z" fill="white"/>
<path fill-rule="evenodd" clip-rule="evenodd" d="M23.4329 44.7949H28.1915L32.2508 50.1765H32.283V44.7949H35.3347V52.2668H30.7756L26.5129 46.8865H26.4821V52.2668H23.4329V44.7949Z" fill="white"/>
<path fill-rule="evenodd" clip-rule="evenodd" d="M39.623 50.7017H40.5799C42.361 50.7017 43.0152 50.5233 43.0152 49.9437C43.0152 49.3215 42.1909 49.1166 40.8616 49.1166H39.623V50.7017ZM39.623 47.695H40.5799C42.0579 47.695 42.8395 47.588 42.8395 47.0075C42.8395 46.3902 42.1909 46.1803 40.8616 46.1803H39.623V47.695ZM36.2773 44.7947H42.0579C44.8362 44.7947 46.4711 45.5276 46.4711 46.6351C46.4711 47.2915 45.7865 48.0984 44.2591 48.3371V48.3599C46.0976 48.4605 46.7742 49.5565 46.7742 50.2138C46.7742 51.5329 45.1845 52.267 42.0737 52.267H36.2773V44.7947ZM34.9441 20.3026C35.5608 19.3537 36.5818 18.359 37.6822 17.938C39.575 17.1231 42.1139 17.4723 43.6584 18.7622C45.1536 20.0435 45.9128 21.7984 45.5512 23.7612C45.9233 23.698 46.2901 23.4742 46.6782 23.3488C49.0019 22.7312 51.4529 23.4024 52.9415 25.2828C54.058 26.628 54.3506 28.7146 53.6807 30.3362C53.3471 31.1508 52.7794 31.8849 52.0406 32.5125L52.1176 32.584C54.276 32.6819 56.3977 34.2681 57.0519 36.2117C57.7613 38.1725 57.1366 40.2694 55.6214 41.7023C54.38 42.8588 52.7875 43.2613 51.0168 43.2262H18.8711C16.2286 43.2815 14.1898 42.1753 13.0915 39.9553C12.2305 38.0481 12.6558 35.6109 14.2668 34.1602C15.2808 33.1573 16.5488 32.7448 17.925 32.5386C16.3696 31.1782 15.6227 29.3144 16.0585 27.3168C16.3696 25.6952 17.8291 24.0561 19.5039 23.4925C20.9819 22.9367 22.9811 23.0353 24.337 23.787L24.3836 23.7341C23.9755 21.53 25.0069 19.5407 26.9407 18.3239C28.6648 17.2214 31.4189 17.2478 33.1059 18.4219C33.8647 18.8615 34.4895 19.6135 34.9441 20.3026Z" fill="white"/>
<path fill-rule="evenodd" clip-rule="evenodd" d="M44.0465 21.1272C43.7914 20.5443 43.3448 20.026 42.8142 19.5778C41.5076 18.5199 39.3863 18.2962 37.8788 19.1207C36.4396 19.8462 35.5874 21.2252 35.5769 22.721L35.6353 22.7756L37.5201 22.7938C37.645 22.8742 37.8417 22.8643 37.8788 23.0354C37.1134 23.5908 35.8054 24.084 35.9661 25.2379L37.9852 37.2776L38.0332 37.225L43.6104 25.3557C44.3307 24.1727 44.7378 22.4446 44.0465 21.1272Z" fill="#645FA9"/>
<path fill-rule="evenodd" clip-rule="evenodd" d="M32.0556 37.2061L34.3271 23.4201C34.4895 22.4168 34.2249 21.5119 33.7692 20.7148C33.2771 19.9456 32.4822 19.317 31.6475 18.9777C30.0735 18.3502 28.096 18.6633 26.8941 19.8198C25.6978 20.9303 25.2075 22.5515 25.7363 24.1013L31.4403 36.14L32.0252 37.2502C32.0465 37.2425 32.0636 37.225 32.0556 37.2061Z" fill="#C8234A"/>
<path fill-rule="evenodd" clip-rule="evenodd" d="M52.297 26.5198C53.0638 27.7554 52.8937 29.6272 52.0404 30.7738C51.5112 31.5808 50.6394 31.983 49.9002 32.5122L38.0877 40.1791H38.0597L38.1927 39.812L44.4531 26.448C45.3918 24.8715 47.1821 24.0734 49.0763 24.3164C50.3734 24.5401 51.6708 25.3385 52.297 26.5198Z" fill="#0088CF"/>
<path fill-rule="evenodd" clip-rule="evenodd" d="M18.7382 31.616L31.8765 40.179H31.9787L25.4641 26.4482C24.3634 24.6025 22.0345 23.8412 19.9691 24.5585C18.7091 25.0063 17.6483 26.135 17.3081 27.3445C16.852 28.9561 17.4036 30.5499 18.7382 31.616Z" fill="#F26F21"/>
<path fill-rule="evenodd" clip-rule="evenodd" d="M55.1853 40.423C56.1223 39.3119 56.3788 37.5192 55.725 36.2118C55.2984 35.3167 54.3891 34.4191 53.4241 34.0622C52.1736 33.4979 50.432 33.6224 49.2836 34.3211L37.5492 42.0436L51.5579 42.0343C53.016 42.0698 54.2561 41.4875 55.1853 40.423Z" fill="#0DB04B"/>
<path fill-rule="evenodd" clip-rule="evenodd" d="M32.4239 42.0434L20.6894 34.3213C19.5411 33.6225 17.7998 33.4981 16.5489 34.0624C15.584 34.4192 14.675 35.3169 14.248 36.2119C13.5942 37.519 13.8518 39.3117 14.7877 40.4229C15.717 41.4874 16.957 42.0696 18.4151 42.0345L32.4239 42.0434Z" fill="#FCB813"/>
</svg>
