<svg width="70" height="70" viewBox="0 0 70 70" fill="none" xmlns="http://www.w3.org/2000/svg">
<mask id="mask0_1841_2667" style="mask-type:alpha" maskUnits="userSpaceOnUse" x="0" y="0" width="70" height="70">
<circle cx="35" cy="35" r="35" fill="#CC0000"/>
</mask>
<g mask="url(#mask0_1841_2667)">
<circle cx="35" cy="35" r="35" fill="#CC0000"/>
<circle cx="35" cy="35" r="25" fill="white"/>
<path d="M6 6V64H64V6H6ZM26.8389 38.712V28.3735C26.8389 24.4827 31.868 22.6146 34.5288 27.1362C34.7221 27.4624 38.9126 34.681 38.9126 34.681V28.3735C38.9126 24.4827 43.9393 22.6146 46.6 27.1362C46.7933 27.4624 50.9838 34.681 50.9838 34.681V24.5745H53.4923V41.5419C53.4987 41.6566 53.4661 41.7701 53.3998 41.864C53.3336 41.9578 53.2376 42.0266 53.1274 42.0591C52.8616 42.1316 52.5813 41.9673 52.3758 41.6193C52.3348 41.5516 50.2008 37.8831 48.1515 34.3378L44.3912 27.8636C43.8643 26.9694 43.0789 26.8123 42.5207 26.9646C42.199 27.0546 41.9165 27.249 41.7174 27.5171C41.5183 27.7853 41.4141 28.1121 41.4211 28.446V41.5419C41.427 41.6565 41.3942 41.7698 41.328 41.8636C41.2619 41.9574 41.1661 42.0262 41.0562 42.0591C40.7879 42.1316 40.5076 41.9673 40.3046 41.6193C40.2683 41.5588 38.2891 38.1489 36.3775 34.8526C33.9415 30.6524 32.3417 27.8974 32.3175 27.8563C31.7907 26.9598 31.0028 26.8051 30.4398 26.9573C30.1179 27.0472 29.835 27.2415 29.6355 27.5097C29.4361 27.7778 29.3313 28.1046 29.3378 28.4388V41.2592C29.3269 41.4297 29.254 41.5904 29.133 41.711C29.0119 41.8316 28.851 41.9038 28.6804 41.9141H22.1723C20.3367 41.9141 18.5762 41.1849 17.2782 39.8869C15.9802 38.5889 15.251 36.8284 15.251 34.9928C15.251 33.1571 15.9802 31.3966 17.2782 30.0986C18.5762 28.8006 20.3367 28.0714 22.1723 28.0714H25.5557V30.5751H22.2013C21.0297 30.5751 19.906 31.0405 19.0776 31.869C18.2491 32.6975 17.7837 33.8211 17.7837 34.9928C17.7837 36.1644 18.2491 37.288 19.0776 38.1165C19.906 38.945 21.0297 39.4104 22.2013 39.4104H26.1478C26.2393 39.4111 26.3301 39.3934 26.4147 39.3585C26.4993 39.3235 26.5761 39.272 26.6405 39.2069C26.7049 39.1418 26.7557 39.0645 26.7897 38.9795C26.8238 38.8945 26.8405 38.8036 26.8389 38.712ZM56.9917 41.6241C56.9917 45.5149 51.9626 47.383 49.3018 42.8638C49.1109 42.5376 44.918 35.3166 44.918 35.3166V41.6241C44.918 45.5149 39.8913 47.383 37.2306 42.8638C37.0373 42.5376 32.8468 35.3166 32.8468 35.3166V41.264C32.8468 43.9634 31.2445 45.4255 28.7384 45.4255H22.1772C19.4122 45.4255 16.7604 44.3271 14.8052 42.3719C12.8501 40.4168 11.7517 37.765 11.7517 35C11.7517 32.235 12.8501 29.5832 14.8052 27.6281C16.7604 25.6729 19.4122 24.5745 22.1772 24.5745H25.5605V27.0782H22.1772C21.1369 27.0782 20.1067 27.2831 19.1456 27.6812C18.1845 28.0793 17.3112 28.6628 16.5756 29.3984C15.84 30.134 15.2565 31.0073 14.8583 31.9685C14.4602 32.9296 14.2553 33.9597 14.2553 35C14.2553 36.0403 14.4602 37.0704 14.8583 38.0316C15.2565 38.9927 15.84 39.866 16.5756 40.6016C17.3112 41.3372 18.1845 41.9207 19.1456 42.3188C20.1067 42.7169 21.1369 42.9218 22.1772 42.9218H28.6804C29.117 42.9132 29.5333 42.7361 29.8423 42.4276C30.1513 42.119 30.329 41.703 30.3383 41.2664V28.446C30.3321 28.3316 30.3647 28.2185 30.431 28.125C30.4972 28.0316 30.5932 27.9633 30.7032 27.9313C30.969 27.8588 31.2493 28.0231 31.4548 28.3711L35.5123 35.3625C37.871 39.4298 39.4201 42.1002 39.4394 42.1292C39.9687 43.0233 40.7565 43.1804 41.3196 43.0258C41.6414 42.9356 41.924 42.7407 42.1227 42.472C42.3214 42.2033 42.4249 41.876 42.4168 41.5419V28.4484C42.4101 28.3343 42.442 28.2213 42.5073 28.1276C42.5726 28.0338 42.6676 27.9646 42.7768 27.9313C43.0403 27.8588 43.3182 28.0231 43.5212 28.3711L51.5083 42.1364C51.9215 42.8373 52.4967 43.0862 52.9969 43.0862C53.1284 43.0862 53.2593 43.0683 53.386 43.033C53.712 42.9453 53.999 42.7507 54.2011 42.4803C54.4031 42.2098 54.5084 41.8794 54.5001 41.5419V24.5745H56.9989L56.9917 41.6241Z" fill="#CC0000"/>
</g>
</svg>
