<svg width="70" height="70" viewBox="0 0 70 70" fill="none" xmlns="http://www.w3.org/2000/svg">
<path d="M70 35C70 54.33 54.33 70 35 70C15.67 70 0 54.33 0 35C0 15.67 15.67 0 35 0C54.33 0 70 15.67 70 35Z" fill="#FFF200"/>
<path d="M32.9092 21.7143H33.6126L33.6968 21.405H25.0036L24.919 21.7143H26.1851C27.2821 21.7143 28.1544 22.4736 28.1544 23.9933C28.1544 24.8372 27.7899 25.9344 27.1987 27.2568L21.5999 39.6929L20.221 23.5439C20.1085 22.278 20.7272 21.7156 22.1628 21.7156H22.9782L23.0622 21.405H10.824L10.7112 21.7143H11.4988C12.4555 21.7143 12.8214 22.3052 12.9338 23.4587L15.1003 44.3343H20.2488L28.8578 26.1035C30.152 23.3741 31.5303 21.7143 32.9092 21.7143ZM31.8964 44.4467C31.1088 44.4467 30.6303 44.1936 30.6303 42.8994C30.6303 41.2674 31.2195 38.0884 31.8674 35.1906C31.9505 36.5411 32.8798 37.8633 34.2587 37.8633C34.5969 37.8633 34.8783 37.8353 35.1577 37.7789C33.8902 43.2936 33.3866 44.4467 31.8964 44.4467ZM56.4013 33.4743C58.0332 33.4743 59.074 32.1238 59.074 30.6046C59.074 29.3104 58.1456 28.3538 56.8234 28.3538C54.4321 28.3538 53.3084 30.2389 51.3383 33.7256C50.9171 31.5591 49.9331 28.7183 47.4 28.7183C44.5592 28.7183 41.2953 32.7699 38.2844 35.2726C36.9339 36.3983 35.4153 37.1293 34.2045 37.1293C32.9673 37.1293 32.2364 35.8618 32.2364 33.6406C33.109 30.0101 33.5869 29.0544 34.9374 29.0544C35.8668 29.0544 36.2596 29.589 36.2596 30.6864C36.2596 31.8385 36.0065 33.8086 35.5003 36.2566C36.8509 35.8334 38.8777 34.1468 40.5643 32.3184C39.6653 30.1802 37.7519 28.7163 34.9658 28.7163C29.8188 28.7163 25.3156 33.3288 25.3156 38.5062C25.3156 42.0799 27.8486 44.7798 31.8152 44.7798C38.3715 44.7798 41.1009 39.097 41.1009 35.158C41.1009 34.5951 41.0726 34.1739 41.0159 33.6669C42.0295 32.5697 43.3235 31.5289 44.3926 31.5289C45.6024 31.5289 46.5591 34.5675 47.5155 39.1537C46.6711 40.081 45.8268 41.8819 45.4056 42.1913C45.2363 40.5593 44.1675 39.5469 42.7329 39.5469C41.1292 39.5469 40.0035 41.0655 40.0035 42.3599C40.0035 43.8231 41.0159 44.7796 42.3381 44.7796C45.1242 44.7796 45.9118 42.1348 47.6562 39.7996C48.1907 42.3028 49.4287 44.7786 51.5667 44.7786C54.0989 44.7786 56.4622 42.612 57.6714 41.0651L57.4467 40.6986C56.659 41.4585 55.8993 41.9649 55.027 41.9649C53.4517 41.9649 52.326 38.5612 51.4543 34.4529C51.9605 33.7503 52.7765 31.9776 53.3394 31.359C53.7342 32.0904 54.5498 33.4689 56.4069 33.4689L56.4013 33.4743Z" fill="#444745"/>
</svg>
